<svg width="20" height="20" viewBox="0 0 20 20" fill="none" xmlns="http://www.w3.org/2000/svg">
<path d="M9.99989 19.3599C15.2559 19.3599 19.3599 15.0879 19.3599 9.99989C19.3599 4.76789 15.2319 0.639893 9.99989 0.639893C4.76789 0.639893 0.639893 4.76789 0.639893 9.99989C0.639893 15.2319 4.76789 19.3599 9.99989 19.3599ZM2.55989 9.99989C2.55989 5.82389 5.82389 2.55989 9.99989 2.55989C14.1759 2.55989 17.4399 5.82389 17.4399 9.99989C17.4399 14.0559 14.1759 17.4399 9.99989 17.4399C5.82389 17.4399 2.55989 14.1759 2.55989 9.99989ZM5.82389 10.1679L9.18389 13.5519L14.8479 7.86389L13.5039 6.51989L9.18389 10.8159L7.16789 8.82389L5.82389 10.1679Z" fill="#6EC85C"/>
</svg>
