<svg width="18" height="18" viewBox="0 0 18 18" fill="none" xmlns="http://www.w3.org/2000/svg">
<path d="M9.00008 17.3327C4.39758 17.3327 0.666748 13.6018 0.666748 8.99935C0.666748 4.39685 4.39758 0.666016 9.00008 0.666016C13.6026 0.666016 17.3334 4.39685 17.3334 8.99935C17.3334 13.6018 13.6026 17.3327 9.00008 17.3327ZM9.00008 15.666C10.7682 15.666 12.4639 14.9636 13.7141 13.7134C14.9644 12.4632 15.6667 10.7675 15.6667 8.99935C15.6667 7.23124 14.9644 5.53555 13.7141 4.2853C12.4639 3.03506 10.7682 2.33268 9.00008 2.33268C7.23197 2.33268 5.53628 3.03506 4.28604 4.2853C3.03579 5.53555 2.33341 7.23124 2.33341 8.99935C2.33341 10.7675 3.03579 12.4632 4.28604 13.7134C5.53628 14.9636 7.23197 15.666 9.00008 15.666ZM8.16675 4.83268H9.83341V6.49935H8.16675V4.83268ZM8.16675 8.16602H9.83341V13.166H8.16675V8.16602Z" fill="#D4CCFF"/>
</svg>
