<svg width="32" height="36" viewBox="0 0 32 36" fill="none" xmlns="http://www.w3.org/2000/svg">
<path d="M27.4687 6.14194C27.4687 6.14194 25.696 4.57985 23.3374 3.46995C23.2912 3.4494 23.2398 3.44426 23.1936 3.4494C23.1473 3.45968 23.1011 3.48023 23.0651 3.51106C23.0291 3.54703 23.0034 3.58814 22.988 3.63438C22.9726 3.68063 22.9726 3.73201 22.988 3.77826C23.322 4.89844 23.9284 7.57556 22.8853 9.91869C22.654 10.6329 23.0034 10.895 23.6252 11.1005C24.2469 11.3112 25.1359 11.563 25.9118 11.8507C25.994 11.8816 26.0711 11.933 26.1276 12.0049C26.1841 12.0768 26.2201 12.159 26.2355 12.2515C26.2458 12.344 26.2355 12.4365 26.1996 12.5187C26.1636 12.6009 26.1071 12.6729 26.0351 12.7294L21.4825 16.1156L17.9267 18.7517L18.903 16.1105L20.9275 10.6175C20.9275 10.6124 22.1916 6.8048 21.2615 3.3158C21.2153 3.14623 21.1228 2.98694 20.9943 2.85848C20.8659 2.73516 20.7066 2.64266 20.5319 2.59642C17.5618 1.8051 14.4428 1.8051 11.4728 2.59642C11.2981 2.64266 11.1388 2.73002 11.0103 2.85848C10.8819 2.9818 10.7894 3.14109 10.7431 3.3158C9.81309 6.80993 11.0771 10.6175 11.0771 10.6175V10.6227L13.1017 16.1054L14.078 18.7465L10.5273 16.1054L6.27784 12.9504C6.20591 12.899 6.14938 12.827 6.11341 12.7448C6.07745 12.6626 6.06717 12.5701 6.07744 12.4828C6.08772 12.3954 6.11855 12.3132 6.17508 12.2413C6.2316 12.1693 6.30354 12.1179 6.38575 12.082C7.05375 11.8096 7.76285 11.5476 8.51306 11.3061C8.6518 11.265 8.77512 11.193 8.88303 11.0954C8.99094 10.9978 9.07829 10.8847 9.13481 10.7511C9.19647 10.6227 9.22217 10.4788 9.22217 10.3349C9.22217 10.191 9.19134 10.0471 9.12967 9.91869C8.08657 7.5807 8.68777 4.89844 9.02691 3.77826C9.04232 3.73201 9.04232 3.68063 9.02691 3.63438C9.01149 3.583 8.9858 3.54189 8.94983 3.51106C8.91386 3.47509 8.86761 3.45454 8.82137 3.4494C8.76998 3.44426 8.72374 3.4494 8.67749 3.46995C6.31895 4.57985 4.54619 6.14194 4.54619 6.14194C4.12484 6.49649 3.72918 6.8716 3.35407 7.27239C1.22162 9.54872 1.72005 13.2073 4.37662 14.831L13.3689 20.3292L9.53561 21.6138C8.48223 21.9683 7.61897 23.1656 7.61897 24.2755V29.7685C7.61897 30.8784 8.48223 32.0756 9.53561 32.4302L14.0883 33.9511C15.1416 34.3057 16.8682 34.3057 17.9215 33.9511L22.4742 32.4302C23.5276 32.0756 24.3908 30.8784 24.3908 29.7685V24.2806C24.3908 23.1707 23.5276 21.9735 22.4742 21.6189L18.6409 20.3343L27.6332 14.8362C30.2846 13.2124 30.7933 9.55386 28.6711 7.28267C28.2909 6.88187 27.8901 6.50163 27.4687 6.14194ZM12.7112 10.3349C14.9053 10.0163 17.1354 9.98549 19.3397 10.2424L17.0377 16.1105L16.0049 18.7517L14.9721 16.1105L12.7112 10.3349ZM21.241 23.2118C21.8113 23.4019 22.2738 24.0494 22.2738 24.6506V28.6174C22.2738 29.3882 21.6726 29.8198 20.9429 29.5783L17.1199 28.2989C16.5033 28.0933 15.4962 28.0933 14.8796 28.2989L11.0566 29.5783C10.3269 29.825 9.72573 29.3933 9.72573 28.6174V24.6454C9.72573 24.0442 10.1933 23.3968 10.7586 23.2067L14.0831 22.0968C15.1416 21.7474 16.8682 21.7474 17.9215 22.1019L21.241 23.2118Z" fill="white"/>
<path d="M17.9215 22.102L21.2409 23.2119C21.8113 23.402 22.2738 24.0494 22.2738 24.6506V28.6175C22.2738 29.3883 21.6726 29.8199 20.9429 29.5784L17.1199 28.2989C16.5033 28.0934 15.4962 28.0934 14.8796 28.2989L11.0566 29.5784C10.3269 29.825 9.72571 29.3934 9.72571 28.6175V24.6455C9.72571 24.0443 10.1933 23.3969 10.7585 23.2067L14.0831 22.0968C15.1416 21.7474 16.8681 21.7474 17.9215 22.102ZM16.0049 18.7517L17.0377 16.1106L19.3397 10.2425C17.1353 9.98555 14.9053 10.0164 12.7111 10.335L14.9721 16.1106L16.0049 18.7517ZM31.2712 12.339C31.2609 12.3749 31.2558 12.4057 31.2455 12.4366L31.2403 12.452L31.2352 12.4623C31.2301 12.4828 31.2249 12.4982 31.2198 12.5188C31.2146 12.5342 31.2146 12.5393 31.2095 12.5548C30.747 14.0449 29.7553 15.3141 28.4193 16.126L22.2018 19.9284L22.9469 20.1802C23.7536 20.4525 24.5038 21.0178 25.0485 21.7783C25.5932 22.5387 25.8964 23.4226 25.8964 24.2755V29.7737C25.8964 30.6266 25.5932 31.5156 25.0485 32.2761C24.5038 33.0366 23.7536 33.6018 22.9469 33.8741L18.3943 35.3951C17.7314 35.6161 16.8784 35.7394 15.9946 35.7394C15.1057 35.7394 14.2578 35.6161 13.595 35.3951L9.0423 33.8741C8.23557 33.6018 7.48536 33.0366 6.94068 32.2761C6.39601 31.5156 6.09284 30.6266 6.09284 29.7737V24.2858C6.09284 23.4328 6.39601 22.5439 6.94068 21.7834C7.48536 21.0229 8.23557 20.4525 9.0423 20.1853L9.78738 19.9336L3.57501 16.1311C2.76314 15.6327 2.06945 14.9596 1.54533 14.158C1.02635 13.3564 0.687208 12.4469 0.558747 11.5014C0.430286 10.5559 0.512502 9.58989 0.805393 8.68038C1.09315 7.77088 1.58643 6.93846 2.23902 6.23963L2.29554 6.17797L2.31095 6.16255C2.36748 6.10089 2.42914 6.03923 2.48566 5.98271L2.60898 5.85939C2.68092 5.78745 2.75286 5.71551 2.8248 5.64871L2.84535 5.62816L2.90187 5.57677C2.98923 5.49456 3.07658 5.41234 3.17421 5.32499L3.18963 5.30957L3.23073 5.2736C3.32322 5.19139 3.42086 5.10404 3.52362 5.01668C4.95725 3.80401 6.56558 2.81743 8.29723 2.08778C9.19132 1.70753 10.1111 1.39409 11.0514 1.14744L11.0823 1.13717L11.1234 1.12689L11.1336 1.12175C11.2004 1.10633 11.2621 1.08578 11.3289 1.07036L11.3443 1.06523L11.4214 1.04467C11.4985 1.02412 11.5756 1.00357 11.6526 0.988151H11.6629L11.6989 0.977874C11.7862 0.95732 11.8787 0.936766 11.9712 0.916212L12.0226 0.905936L12.0483 0.900797L12.2487 0.85969L12.3412 0.839135L12.5416 0.803167L12.5621 0.798028L12.6187 0.787751C12.7163 0.772336 12.8088 0.756921 12.8961 0.741505L12.9372 0.736367H12.9526C13.0297 0.720951 13.1068 0.710675 13.1787 0.700399L13.2661 0.690121H13.2764L13.4665 0.664429H13.487L13.5641 0.654153C13.6412 0.643876 13.7234 0.633599 13.8005 0.623322H13.8108L13.8467 0.618183L14.1191 0.587352L14.1859 0.582214H14.2116L14.4017 0.566799L14.5045 0.556522L14.7049 0.541107H14.7305L14.7871 0.535968C14.8796 0.53083 14.9721 0.525692 15.0645 0.520553H15.1159H15.1365L15.3472 0.510276L15.4448 0.505137L15.6401 0.5H15.6606H15.7274C15.825 0.5 15.9124 0.5 15.9946 0.5H16.01C16.0974 0.5 16.1899 0.5 16.2926 0.5H16.3492H16.3697L16.5804 0.505137H16.6626L16.9041 0.515415H16.9144H16.9452C17.0428 0.520553 17.1405 0.525691 17.2381 0.530829H17.2638H17.2689L17.5207 0.551384L17.5824 0.556522C17.6646 0.566798 17.7519 0.571937 17.8342 0.582214H17.8444H17.8701C18.0654 0.597629 18.2658 0.623322 18.4662 0.649014H18.4816H18.4867C18.5844 0.66443 18.6769 0.674706 18.7694 0.690121H18.7745H18.7899C18.8824 0.705536 18.98 0.720951 19.0828 0.736367L19.1599 0.751783L19.1907 0.756922L19.3706 0.787751L19.4939 0.808306H19.5042L19.6634 0.839135L19.8022 0.864828L19.9512 0.895658L19.9615 0.900797L20.1002 0.921351L20.2184 0.947043L20.2441 0.952182L20.2801 0.962459L20.3931 0.988151L20.4445 0.998427L20.465 1.00357C20.5884 1.0344 20.7117 1.06523 20.835 1.09606L20.8607 1.1012L20.9172 1.11661L20.9378 1.12175C21.8832 1.36839 22.803 1.68698 23.7023 2.06722C25.2541 2.7198 26.7031 3.57792 28.0237 4.62102L28.034 4.6313C28.0956 4.68268 28.147 4.72379 28.1984 4.7649L28.2241 4.78545L28.3423 4.88822C28.4193 4.95502 28.4604 4.99099 28.4604 4.99099L28.4759 5.00127L28.481 5.0064L28.4861 5.01154C28.5992 5.10404 28.6917 5.18625 28.779 5.26333L28.815 5.29416L28.8201 5.2993L28.8561 5.33526L28.8715 5.34554C28.964 5.4329 29.0411 5.50483 29.1182 5.57677L29.1439 5.60246C29.3648 5.81828 29.5652 6.01868 29.7553 6.21908C29.8838 6.35781 30.0071 6.50169 30.1253 6.6507C30.7625 7.45744 31.1941 8.40291 31.3842 9.41004C31.5692 10.3812 31.5332 11.3832 31.2712 12.339ZM28.6711 7.28273C28.2909 6.88193 27.8901 6.50169 27.4687 6.142C27.4687 6.142 25.696 4.57992 23.3374 3.47001C23.2912 3.44946 23.2398 3.44432 23.1936 3.44946C23.1473 3.45974 23.1011 3.48029 23.0651 3.51112C23.0291 3.54709 23.0034 3.5882 22.988 3.63444C22.9726 3.68069 22.9726 3.73207 22.988 3.77832C23.322 4.8985 23.9283 7.57562 22.8852 9.91875C22.654 10.633 23.0034 10.8951 23.6252 11.1006C24.2469 11.3113 25.1359 11.563 25.9118 11.8508C25.994 11.8816 26.0711 11.933 26.1276 12.005C26.1841 12.0769 26.2201 12.1591 26.2355 12.2516C26.2458 12.3441 26.2355 12.4366 26.1995 12.5188C26.1636 12.601 26.107 12.6729 26.0351 12.7295L21.4824 16.1157L17.9267 18.7517L18.903 16.1106L20.9275 10.6176C20.9275 10.6124 22.1916 6.80486 21.2615 3.31586C21.2153 3.14629 21.1228 2.987 20.9943 2.85854C20.8658 2.73522 20.7065 2.64273 20.5318 2.59648C17.5618 1.80516 14.4428 1.80516 11.4728 2.59648C11.2981 2.64273 11.1388 2.73008 11.0103 2.85854C10.8819 2.98186 10.7894 3.14115 10.7431 3.31586C9.81307 6.81 11.0771 10.6176 11.0771 10.6176V10.6227L13.1017 16.1054L14.078 18.7466L10.5273 16.1054L6.27783 12.9504C6.20589 12.899 6.14936 12.8271 6.11339 12.7449C6.07743 12.6627 6.06715 12.5702 6.07743 12.4828C6.0877 12.3955 6.11853 12.3133 6.17506 12.2413C6.23158 12.1694 6.30352 12.118 6.38573 12.082C7.05373 11.8097 7.76283 11.5476 8.51304 11.3061C8.65178 11.265 8.7751 11.1931 8.88301 11.0954C8.99092 10.9978 9.07827 10.8848 9.13479 10.7512C9.19646 10.6227 9.22215 10.4788 9.22215 10.335C9.22215 10.1911 9.19132 10.0472 9.12966 9.91875C8.08655 7.58076 8.68775 4.8985 9.02689 3.77832C9.0423 3.73207 9.0423 3.68069 9.02689 3.63444C9.01147 3.58306 8.98578 3.54195 8.94981 3.51112C8.91384 3.47515 8.8676 3.4546 8.82135 3.44946C8.76997 3.44432 8.72372 3.44946 8.67747 3.47001C6.31893 4.57992 4.54617 6.142 4.54617 6.142C4.12482 6.49655 3.72916 6.87166 3.35405 7.27245C1.2216 9.54878 1.72003 13.2073 4.3766 14.8311L13.3689 20.3292L9.53559 21.6138C8.48221 21.9684 7.61896 23.1656 7.61896 24.2755V29.7685C7.61896 30.8784 8.48221 32.0757 9.53559 32.4302L14.0882 33.9512C15.1416 34.3058 16.8681 34.3058 17.9215 33.9512L22.4742 32.4302C23.5275 32.0757 24.3908 30.8784 24.3908 29.7685V24.2807C24.3908 23.1708 23.5275 21.9735 22.4742 21.619L18.6409 20.3344L27.6332 14.8362C30.2846 13.2125 30.7933 9.55392 28.6711 7.28273Z" fill="#262626"/>
</svg>
