<svg size="38" stroke="primary.c50" viewBox="0 0 38 38" fill="none" xmlns="http://www.w3.org/2000/svg" class="sc-XxNYO cfhpbM"><linearGradient id="gradient-start" gradientUnits="userSpaceOnUse" gradientTransform="rotate(-20)"><stop offset="0" stop-color="white" stop-opacity="0.5"></stop><stop offset="1" stop-color="white" stop-opacity="1"></stop></linearGradient><linearGradient id="gradient-end" gradientUnits="userSpaceOnUse" gradientTransform="rotate(-20)"><stop offset="0" stop-color="white" stop-opacity="0.5"></stop><stop offset="1" stop-color="white" stop-opacity="0"></stop></linearGradient><mask id="gradient-mask" maskUnits="userSpaceOnUse"><rect x="-0" y="-4" width="44" height="22" stroke-width="0" fill="url(#gradient-start)" transform="rotate(10)"></rect><rect x="0" y="18" width="44" height="21" stroke-width="0" fill="url(#gradient-end)" transform="rotate(10)"></rect></mask><path d="M34.8807 20.9499C35.3608 17.0398 34.3815 13.09 32.1304 9.85712C29.8793 6.6242 26.5146 4.33541 22.6808 3.42914C18.847 2.52287 14.8136 3.06283 11.3532 4.94559C7.89277 6.82836 5.24858 9.92158 3.92708 13.6328C2.60558 17.344 2.69968 21.4123 4.19135 25.0584C5.68302 28.7045 8.4674 31.6722 12.0112 33.3929C15.5549 35.1137 19.609 35.4666 23.3968 34.384C27.1846 33.3015 30.4398 30.8596 32.5391 27.526" stroke-width="6" stroke-linecap="round" stroke-linejoin="round" mask="url(#gradient-mask)"></path></svg>