<svg width="32" height="32" viewBox="0 0 32 32" fill="none" xmlns="http://www.w3.org/2000/svg">
<path d="M14.6399 18.5599H17.3199L17.7199 13.0399V7.2799H14.2799V13.0399L14.6399 18.5599ZM0.399902 15.9999C0.399902 24.7199 7.2799 31.5999 15.9999 31.5999C24.7599 31.5999 31.5999 24.4799 31.5999 15.9999C31.5999 7.2799 24.7199 0.399902 15.9999 0.399902C7.2799 0.399902 0.399902 7.2799 0.399902 15.9999ZM3.5999 15.9999C3.5999 9.0399 9.0399 3.5999 15.9999 3.5999C22.9599 3.5999 28.3999 9.0399 28.3999 15.9999C28.3999 22.7599 22.9599 28.3999 15.9999 28.3999C9.0399 28.3999 3.5999 22.9599 3.5999 15.9999ZM14.0799 24.7999H17.9199V20.9599H14.0799V24.7999Z" fill="#FF895A"/>
</svg>
