<svg width="241" height="241" viewBox="0 0 241 241" fill="none" xmlns="http://www.w3.org/2000/svg">
  <rect x="45.6415" y="79.9153" width="137.617" height="80.668" rx="19" transform="rotate(-8.82262 45.6415 79.9153)" fill="#909090" stroke="black" stroke-width="2"/>
  <circle cx="121" cy="75.1666" r="26.5" fill="#F6B40A"/>
  <circle cx="121" cy="75.1666" r="17.5" stroke="#020202" stroke-width="2"/>
  <rect x="45.5" y="76.6666" width="150" height="88" rx="19" fill="#E4E4E4" stroke="black" stroke-width="2"/>
  <path d="M203 11.6666C207.543 23.9438 217.223 33.6236 229.5 38.1666C217.223 42.7096 207.543 52.3894 203 64.6666C198.457 52.3894 188.777 42.7096 176.5 38.1666C188.777 33.6236 198.457 23.9438 203 11.6666Z" fill="#3BD59E"/>
  <path d="M30.5 186.667C32.9001 193.153 38.0139 198.267 44.5 200.667C38.0139 203.067 32.9001 208.181 30.5 214.667C28.0999 208.181 22.9861 203.067 16.5 200.667C22.9861 198.267 28.0999 193.153 30.5 186.667Z" fill="#0C5EFF"/>
  <rect x="133.5" y="103.667" width="75" height="35" rx="9" fill="#909090" stroke="black" stroke-width="2"/>
</svg>
