<svg width="97" height="32" viewBox="0 0 97 32" fill="none" xmlns="http://www.w3.org/2000/svg">
<g clip-path="url(#clip0_4820_46323)">
<path d="M82.4942 29.9849V31.9995H96.3211V22.9137H94.3065V29.9849H82.4942ZM82.4942 0V2.01461H94.3065V9.08631H96.3211V0H82.4942ZM75.3637 15.5853V10.904H78.5243C80.0651 10.904 80.6182 11.4174 80.6182 12.8201V13.6495C80.6182 15.0914 80.0847 15.5853 78.5243 15.5853H75.3637ZM80.3806 16.4147C81.8225 16.0394 82.8298 14.696 82.8298 13.0964C82.8298 12.0891 82.4349 11.1803 81.6843 10.4493C80.7363 9.54048 79.4718 9.08631 77.8325 9.08631H73.3883V22.9132H75.3637V17.4024H78.3268C79.8476 17.4024 80.46 18.0345 80.46 19.615V22.9137H82.4746V19.931C82.4746 17.7581 81.9611 16.9287 80.3806 16.6915V16.4147ZM63.7493 16.8689H69.8333V15.0517H63.7493V10.9035H70.4257V9.08631H61.7342V22.9132H70.7221V21.096H63.7493V16.8689V16.8689ZM57.1318 17.5999V18.5479C57.1318 20.5429 56.4008 21.195 54.5641 21.195H54.1295C52.2922 21.195 51.4035 20.6022 51.4035 17.8566V14.1429C51.4035 11.3777 52.3319 10.8045 54.1687 10.8045H54.5636C56.3611 10.8045 56.9339 11.4762 56.9535 13.3331H59.1263C58.9289 10.6071 57.1117 8.88886 54.3857 8.88886C53.0624 8.88886 51.9562 9.30383 51.1267 10.0936C49.8823 11.2592 49.191 13.2346 49.191 15.9998C49.191 18.6665 49.7838 20.6419 51.0081 21.8662C51.8376 22.6761 52.9835 23.1107 54.1094 23.1107C55.2946 23.1107 56.3812 22.6364 56.9339 21.6095H57.2102V22.9132H59.0274V15.7827H53.6744V17.5999H57.1318ZM39.7102 10.9035H41.8635C43.8982 10.9035 45.0045 11.4169 45.0045 14.1826V17.8169C45.0045 20.5821 43.8982 21.096 41.8635 21.096H39.7102V10.9035ZM42.0409 22.9137C45.8138 22.9137 47.216 20.0495 47.216 16.0002C47.216 11.8917 45.7149 9.08679 42.0012 9.08679H37.7344V22.9137H42.0409ZM28.1944 16.8689H34.2784V15.0517H28.1944V10.9035H34.8707V9.08631H26.1793V22.9132H35.1671V21.096H28.1944V16.8689ZM16.5403 9.08631H14.5257V22.9132H23.612V21.096H16.5403V9.08631ZM0.678711 22.9137V32H14.5056V29.9849H2.69332V22.9137H0.678711ZM0.678711 0V9.08631H2.69332V2.01461H14.5056V0H0.678711Z" fill="white"/>
</g>
<defs>
<clipPath id="clip0_4820_46323">
<rect width="95.6429" height="32" fill="white" transform="translate(0.678711)"/>
</clipPath>
</defs>
</svg>
